HIERARCHY
ROOT hip
{
	OFFSET 0.000000 0.000000 0.000000 
	CHANNELS 6 Xposition Yposition Zposition Xrotation Zrotation Yrotation
	JOINT abdomen
	{
		OFFSET 0.000000 3.402643 0.000000 
		CHANNELS 3 Xrotation Zrotation Yrotation
		JOINT chest
		{
			OFFSET 0.000000 8.438565 -0.680529 
			CHANNELS 3 Xrotation Zrotation Yrotation
			JOINT neck
			{
				OFFSET 0.000000 10.207942 -0.272212 
				CHANNELS 3 Xrotation Zrotation Yrotation
				JOINT head
				{
					OFFSET 0.000000 3.130431 0.000000 
					CHANNELS 3 Xrotation Zrotation Yrotation
					End Site
					{
						OFFSET 0.000000 3.130435 0.000000 
					}
				}
			}
			JOINT lCollar
			{
				OFFSET 3.470700 6.669187 -0.816635 
				CHANNELS 3 Yrotation Zrotation Xrotation
				JOINT lShldr
				{
					OFFSET 3.198488 0.000000 0.000000 
					CHANNELS 3 Zrotation Yrotation Xrotation
					JOINT lForeArm
					{
						OFFSET 10.139888 0.000000 0.000000 
						CHANNELS 3 Yrotation Zrotation Xrotation
						JOINT lHand
						{
							OFFSET 8.370511 0.000000 0.000000 
							CHANNELS 3 Zrotation Yrotation Xrotation
							End Site
							{
								OFFSET 4.083176 0.000000 0.000000 
							}
						}
					}
				}
			}
			JOINT rCollar
			{
				OFFSET -3.470700 6.669187 -0.816635 
				CHANNELS 3 Yrotation Zrotation Xrotation
				JOINT rShldr
				{
					OFFSET -3.198488 0.000000 0.000000 
					CHANNELS 3 Zrotation Yrotation Xrotation
					JOINT rForeArm
					{
						OFFSET -10.139888 0.000000 0.000000 
						CHANNELS 3 Yrotation Zrotation Xrotation
						JOINT rHand
						{
							OFFSET -8.370511 0.000000 0.000000 
							CHANNELS 3 Zrotation Yrotation Xrotation
							End Site
							{
								OFFSET -4.083176 0.000000 0.000000 
							}
						}
					}
				}
			}
		}
	}
	JOINT lThigh
	{
		OFFSET 5.308129 -1.633274 1.361059 
		CHANNELS 3 Xrotation Zrotation Yrotation
		JOINT lShin
		{
			OFFSET -2.041588 -20.007561 0.000000 
			CHANNELS 3 Xrotation Zrotation Yrotation
			JOINT lFoot
			{
				OFFSET 0.000000 -19.190928 -1.224953 
				CHANNELS 3 Xrotation Yrotation Zrotation
				End Site
				{
					OFFSET 0.000000 -2.449906 4.627600 
				}
			}
		}
	}
	JOINT rThigh
	{
		OFFSET -5.308129 -1.633274 1.361059 
		CHANNELS 3 Xrotation Zrotation Yrotation
		JOINT rShin
		{
			OFFSET 2.041588 -20.007561 0.000000 
			CHANNELS 3 Xrotation Zrotation Yrotation
			JOINT rFoot
			{
				OFFSET 0.000000 -19.190928 -1.224953 
				CHANNELS 3 Xrotation Yrotation Zrotation
				End Site
				{
					OFFSET 0.000000 -2.449906 4.627600 
				}
			}
		}
	}
}
MOTION
Frames: 20
Frame Time: 0.016667
4.690555 49.564156 -1.416070 -9.439393 -2.377944 3.665030 24.198669 -0.458984 0.068357 -21.007793 0.937467 0.478611 0.261186 0.614840 -2.050873 8.824364 3.921680 -2.623077 0.810212 -1.963029 -0.009759 -72.678581 0.308481 36.187099 -21.176003 -0.525370 -7.330933 -15.983908 16.302456 -4.604680 10.537075 -0.206864 -0.009601 80.406174 -7.166739 2.732441 16.195152 -3.527044 42.367706 21.816841 -1.682761 -0.684289 -0.653935 0.722558 -14.030234 24.069710 -1.387602 -2.188489 -15.379783 5.413085 -10.637598 1.426247 -9.785461 12.782248 20.135641 1.467768 1.939925 -10.099926 -17.507788 8.705184 
4.739117 49.588043 -1.448493 -9.259660 -2.241818 3.537795 24.003277 -0.527343 0.068356 -20.968426 0.917933 0.507904 0.222333 0.614848 -2.031343 8.876530 3.892504 -2.593849 0.693015 -2.021602 -0.009759 -72.657883 0.318235 36.090279 -21.284838 -0.483464 -6.914502 -16.289297 16.052153 -4.629214 10.449193 -0.158021 -0.009604 80.331306 -7.026206 2.907233 16.242100 -3.508712 42.190952 21.898764 -1.971782 -0.803101 -0.604345 0.595864 -13.912301 23.490749 -1.427679 -2.166103 -15.278333 5.464184 -10.633136 1.377305 -10.053638 12.903198 19.695082 1.480882 1.899615 -9.927562 -17.477974 8.775760 
4.801383 49.614811 -1.501595 -8.968579 -2.047215 3.380933 23.739477 -0.634765 0.068355 -20.978264 0.830039 0.556724 0.338470 0.653898 -2.002045 8.750026 3.912076 -2.573697 0.693021 -1.982540 -0.009759 -72.699425 0.233502 36.263577 -21.291714 -0.484178 -6.859453 -16.219898 15.953731 -4.578784 10.527330 -0.079909 -0.009601 80.321022 -6.991033 2.645048 16.247965 -3.523008 42.459705 21.926954 -1.889839 -0.771299 -0.616418 0.371596 -13.765208 22.795198 -1.456859 -2.125512 -14.830600 5.547078 -10.639132 1.172313 -10.418439 13.059684 19.254297 1.500397 1.850445 -9.751390 -17.455666 8.820596 
4.863645 49.641582 -1.554693 -8.678014 -1.842784 3.224128 23.485315 -0.742187 0.078118 -20.998140 0.742147 0.595780 0.455100 0.683193 -1.962984 8.624207 3.931677 -2.544466 0.683261 -1.953242 -0.009759 -72.743233 0.146057 36.446068 -21.298691 -0.481358 -6.813426 -16.150612 15.855222 -4.531273 10.605469 0.000000 0.000000 80.320755 -6.956363 2.381667 16.254559 -3.548190 42.740776 21.965078 -1.816859 -0.743371 -0.640369 0.151268 -13.607098 22.118946 -1.486387 -2.085495 -14.431173 5.626266 -10.647170 0.967143 -10.756499 13.228936 18.813055 1.510081 1.828908 -9.585745 -17.427885 8.877467 
4.924966 49.661423 -1.606363 -8.528476 -1.687003 3.087186 23.397209 -0.800780 0.087882 -21.047762 0.634728 0.625070 0.453598 0.741769 -1.923920 8.656861 3.931824 -2.495754 0.693035 -1.904415 -0.009760 -72.774612 0.094342 36.579742 -21.342768 -0.483531 -6.893567 -16.118708 15.838772 -4.518055 10.693372 0.066547 -0.009607 80.349617 -6.942157 2.058603 16.229927 -3.567590 43.063896 21.933746 -1.654182 -0.676785 -0.621126 -0.013207 -13.479135 21.579420 -1.515714 -2.052568 -14.094042 5.643162 -10.697596 0.831154 -11.054962 13.361157 18.509150 1.519721 1.804731 -9.225067 -17.328602 9.004966 
4.986283 49.681252 -1.658031 -8.379182 -1.521419 2.950252 23.318846 -0.859374 0.097645 -21.107147 0.537074 0.654360 0.461942 0.800348 -1.884855 8.689512 3.931969 -2.447040 0.693043 -1.855587 -0.009760 -72.808205 0.030549 36.719696 -21.397835 -0.490527 -6.982287 -16.084152 15.825017 -4.495826 10.791039 0.144656 -0.009618 80.368736 -6.936965 1.738351 16.205622 -3.576460 43.376053 21.892841 -1.491540 -0.609853 -0.598613 -0.201157 -13.352639 21.050850 -1.535079 -1.998825 -13.780074 5.623552 -10.734369 0.694670 -11.340419 13.494984 18.194628 1.516653 1.826886 -8.888515 -17.249920 9.095372 
5.047074 49.699238 -1.710494 -8.261171 -1.375283 2.822859 23.269836 -0.878905 0.107409 -21.176586 0.429658 0.673882 0.461086 0.839403 -1.855556 8.771813 3.912597 -2.397660 0.702819 -1.796995 -0.009760 -72.820572 -0.025566 36.877441 -21.437843 -0.522914 -7.263331 -16.201988 15.860732 -4.549900 10.849644 0.203240 -0.009626 80.368950 -6.921051 1.656446 16.142241 -3.589951 43.474632 21.812634 -1.283843 -0.524372 -0.601108 -0.383032 -13.233735 20.668655 -1.548252 -1.971134 -13.615542 5.713157 -10.712320 0.576339 -11.630760 13.648445 17.920799 1.529414 1.775430 -8.592337 -17.202477 9.222266 
5.107864 49.717220 -1.762958 -8.144481 -1.238852 2.705501 23.230410 -0.908201 0.126937 -21.255867 0.322242 0.693403 0.460111 0.888225 -1.816491 8.853679 3.902977 -2.348947 0.702827 -1.748167 -0.009760 -72.833176 -0.081710 37.035179 -21.487171 -0.540380 -7.552848 -16.317215 15.899046 -4.592437 10.898481 0.261826 -0.009634 80.369179 -6.905138 1.574541 16.071604 -3.599286 43.563835 21.732500 -1.070458 -0.426765 -0.608825 -0.570617 -13.124482 20.286518 -1.554508 -1.952007 -13.449640 5.801239 -10.713091 0.469715 -11.887703 13.784468 17.636232 1.539849 1.752045 -8.285783 -17.167204 9.330425 
5.163137 49.729305 -1.813376 -8.079329 -1.141395 2.607877 23.259748 -0.888670 0.126938 -21.354586 0.234358 0.693393 0.517316 0.937034 -1.806878 8.837868 3.844486 -2.329462 0.712601 -1.699340 -0.009761 -72.804001 -0.078420 37.357281 -21.586676 -0.567569 -7.821430 -16.163830 16.014679 -4.581038 10.839902 0.349726 -0.009651 80.281815 -6.868167 1.846686 16.032816 -3.586795 43.357750 21.654606 -1.076512 -0.437984 -0.590269 -0.685577 -13.013955 19.962091 -1.564235 -1.955945 -13.280609 5.816091 -10.719920 0.381985 -12.090716 13.903752 17.410101 1.549538 1.741559 -8.160915 -17.255966 9.337646 
5.218409 49.741383 -1.863795 -8.014511 -1.043919 2.510060 23.288942 -0.869138 0.136703 -21.443516 0.146473 0.703148 0.565245 0.976088 -1.787349 8.832428 3.786019 -2.299583 0.722375 -1.650514 -0.009761 -72.776039 -0.085085 37.676350 -21.685553 -0.584161 -8.089665 -16.011120 16.139746 -4.568957 10.771557 0.427862 -0.009666 80.194489 -6.840009 2.120372 15.988216 -3.564259 43.161030 21.586304 -1.086114 -0.440293 -0.575959 -0.800420 -12.913013 19.638794 -1.572198 -1.930420 -13.103943 5.802825 -10.751306 0.304058 -12.310090 13.992655 17.183470 1.556287 1.750121 -8.043230 -17.364407 9.344525 
5.265457 49.748867 -1.910223 -7.971953 -0.995197 2.431952 23.327982 -0.820310 0.146469 -21.541904 0.087884 0.693374 0.623439 1.005386 -1.758056 8.807396 3.727549 -2.270353 0.722380 -1.621217 -0.009761 -72.726181 -0.050631 37.940353 -21.834505 -0.609679 -8.336599 -15.857553 16.132576 -4.520384 10.722740 0.496230 -0.009679 80.183334 -6.900688 2.112202 16.128723 -3.576120 43.226040 21.647089 -1.339818 -0.542262 -0.577305 -0.876368 -12.847856 19.452616 -1.574267 -1.920648 -12.868744 5.784548 -10.775489 0.244863 -12.448338 14.095477 16.988281 1.559212 1.711052 -7.820315 -17.414785 9.403960 
5.312506 49.756348 -1.956653 -7.939295 -0.946467 2.353678 23.376802 -0.771482 0.156236 -21.630510 0.029295 0.683599 0.671898 1.034685 -1.728763 8.781920 3.678833 -2.240490 0.722385 -1.591920 -0.009761 -72.679459 -0.010326 38.216335 -21.983980 -0.637564 -8.574059 -15.694629 16.135433 -4.474413 10.664158 0.564599 -0.009693 80.162125 -6.970633 2.106890 16.276756 -3.578432 43.298500 21.708227 -1.584237 -0.641129 -0.595857 -0.946694 -12.771266 19.246603 -1.583984 -1.901513 -12.635324 5.743922 -10.821737 0.186586 -12.585482 14.178867 16.792181 1.556336 1.710172 -7.607341 -17.470545 9.470368 
5.349135 49.760193 -1.997862 -7.908088 -0.926997 2.285331 23.415874 -0.722653 0.166002 -21.708870 0.009765 0.673830 0.720431 1.044446 -1.728762 8.786968 3.581299 -2.221006 0.732152 -1.582156 -0.009761 -72.667007 0.013439 38.384457 -22.046757 -0.635828 -8.624852 -15.632551 15.998175 -4.417507 10.693456 0.574360 -0.009693 80.208458 -7.073255 1.801178 16.370701 -3.588874 43.388767 21.689735 -1.675198 -0.676950 -0.645615 -1.002891 -12.691298 19.207788 -1.583947 -1.889711 -12.422215 5.708058 -10.831461 0.138037 -12.652575 14.265884 16.644640 1.566143 1.693984 -7.444158 -17.499901 9.518593 
5.385765 49.764042 -2.039071 -7.876930 -0.907523 2.216983 23.455107 -0.664060 0.166004 -21.777456 -0.009765 0.654297 0.778910 1.054213 -1.718998 8.781212 3.493497 -2.210664 0.732152 -1.582156 -0.009761 -72.657127 0.024899 38.558693 -22.101492 -0.641427 -8.685340 -15.580775 15.860082 -4.366231 10.722755 0.593886 -0.009696 80.264755 -7.183612 1.505335 16.471601 -3.592514 43.476597 21.680956 -1.756987 -0.709131 -0.683389 -1.054384 -12.612266 19.149940 -1.572243 -1.884884 -12.214919 5.696744 -10.884759 0.088774 -12.729371 14.352288 16.498062 1.568797 1.667155 -7.260447 -17.549850 9.562683 
5.412270 49.764725 -2.074733 -7.856839 -0.917318 2.158396 23.484409 -0.624997 0.175771 -21.826172 0.000000 0.644531 0.818735 1.034696 -1.709235 8.815443 3.395958 -2.191177 0.741915 -1.601689 -0.009761 -72.672943 -0.004238 38.619270 -22.036180 -0.639395 -8.743814 -15.569519 15.974460 -4.393799 10.712996 0.623185 -0.009701 80.193512 -7.289313 1.523625 16.530052 -3.588944 43.538578 21.650026 -1.621199 -0.653915 -0.800591 -1.073804 -12.544205 19.247864 -1.572160 -1.890033 -12.139103 5.662748 -10.902154 -0.018621 -12.742002 14.424613 16.507866 1.568808 1.667670 -7.194550 -17.545835 9.584506 
5.438775 49.765408 -2.110396 -7.827480 -0.936865 2.109572 23.513857 -0.576169 0.175772 -21.874786 0.019530 0.625003 0.868029 1.024940 -1.699471 8.849043 3.298395 -2.180867 0.751677 -1.621222 -0.009761 -72.696404 -0.027256 38.679855 -21.972382 -0.647143 -8.802328 -15.568444 16.088097 -4.424018 10.703236 0.662249 -0.009708 80.112312 -7.396380 1.532576 16.595257 -3.592325 43.601131 21.619087 -1.498031 -0.593653 -0.929460 -1.085095 -12.474547 19.364111 -1.583888 -1.907706 -12.045406 5.624549 -10.879439 -0.116704 -12.772634 14.495546 16.527121 1.568810 1.678429 -7.113672 -17.542208 9.617071 
5.459365 49.763832 -2.142617 -7.807339 -0.946659 2.050985 23.533478 -0.546872 0.175773 -21.903667 0.058590 0.615244 0.840395 0.985909 -1.670011 8.959621 3.259423 -2.151623 0.771203 -1.650522 -0.009761 -72.678886 -0.027310 38.673687 -21.915791 -0.642794 -8.714734 -15.494495 16.055717 -4.392343 10.615348 0.672029 -0.009712 80.013176 -7.429638 1.680280 16.547409 -3.611214 43.729210 21.499905 -1.268511 -0.510204 -1.055581 -1.125121 -12.406559 19.501963 -1.573779 -1.913672 -12.052266 5.651578 -10.887295 -0.194895 -12.781468 14.566998 16.517666 1.568823 1.668184 -7.066267 -17.543034 9.612535 
5.479952 49.762253 -2.174838 -7.777752 -0.966213 1.992398 23.553068 -0.527341 0.175774 -21.932560 0.097651 0.605484 0.812559 0.946873 -1.650488 9.079927 3.220450 -2.122376 0.790728 -1.689588 -0.009760 -72.663643 -0.020872 38.679493 -21.859268 -0.638272 -8.626955 -15.420576 16.023285 -4.363453 10.517694 0.691577 -0.009719 79.913795 -7.473725 1.820176 16.500372 -3.613943 43.864262 21.380856 -1.042215 -0.418600 -1.172065 -1.166720 -12.339413 19.648821 -1.573753 -1.921419 -12.080555 5.660410 -10.893377 -0.271955 -12.798560 14.608516 16.507074 1.565966 1.696516 -7.046830 -17.510571 9.629716 
5.497682 49.758198 -2.205379 -7.747798 -0.976007 1.933812 23.553129 -0.507810 0.175774 -21.941914 0.136711 0.605490 0.755592 0.917610 -1.601670 9.220100 3.201032 -2.073079 0.820016 -1.738421 -0.009760 -72.610992 -0.011810 38.769161 -21.853081 -0.640868 -8.672857 -15.354380 15.829244 -4.292383 10.420043 0.711124 -0.009725 79.815201 -7.489579 2.004879 16.474134 -3.580940 43.394737 21.324167 -1.279167 -0.509862 -1.298470 -1.179228 -12.270281 19.728386 -1.552297 -1.932006 -12.083414 5.625691 -10.911004 -0.399772 -12.800894 14.711623 16.556526 1.568845 1.679972 -6.959611 -17.527887 9.644108 
5.515413 49.754150 -2.235917 -7.708056 -0.985800 1.875226 23.562838 -0.498044 0.185540 -21.951298 0.175772 0.595730 0.698689 0.878579 -1.562616 9.360242 3.181610 -2.024329 0.839539 -1.787253 -0.009760 -72.558510 -0.012247 38.855949 -21.845331 -0.637456 -8.709701 -15.296690 15.646358 -4.217754 10.322390 0.740438 -0.009733 79.716774 -7.503100 2.200525 16.441992 -3.556939 42.918392 21.257990 -1.507305 -0.596833 -1.424957 -1.192802 -12.210736 19.835714 -1.542626 -1.965366 -12.075325 5.599082 -10.935467 -0.516382 -12.800093 14.775139 16.615234 1.566106 1.692441 -6.870940 -17.510475 9.663054 
